<svg width="22" height="18" viewBox="0 0 22 18" fill="none" xmlns="http://www.w3.org/2000/svg">
<path d="M20.5 4.5C20.5 6.15685 16.2467 7.5 11 7.5M20.5 4.5C20.5 2.84315 16.2467 1.5 11 1.5C5.75329 1.5 1.5 2.84315 1.5 4.5M20.5 4.5V7.5M11 7.5C5.75329 7.5 1.5 6.15685 1.5 4.5M11 7.5V10.5M1.5 4.5V7.5M20.5 7.5C20.5 9.1569 16.2467 10.5 11 10.5M20.5 7.5V10.5M11 10.5C5.75329 10.5 1.5 9.1569 1.5 7.5M1.5 7.5V10.5M3 6.5V9M6.5 7.5V10M15.5 7.5V10M19 6.5V9M4 9.5V12M7.5 10.5V13M12 10.5V13.5M16.5 10.5V13M20 9V11.5M3 12.5V15M6.5 13.5V16M11 13.5V16.5M11 13.5C16.2467 13.5 20.5 12.1569 20.5 10.5M11 13.5C5.75329 13.5 1.5 12.1569 1.5 10.5M11 16.5C16.2467 16.5 20.5 15.1569 20.5 13.5V10.5M11 16.5C5.75329 16.5 1.5 15.1569 1.5 13.5V10.5M15.5 13.5V16M19 12.5V15" stroke="#191644" stroke-width="1.25" stroke-linecap="round"/>
</svg>
