<svg width="24" height="24" viewBox="0 0 24 24" fill="none" xmlns="http://www.w3.org/2000/svg">
<path d="M14.1187 3.63571C11.6991 2.98739 9.2029 4.4578 8.54317 6.91995C8.29457 7.84773 8.26775 8.6442 7.30709 10.1724C6.95339 10.735 5.85023 11.7736 4.71266 12.7706C3.47843 13.8524 3.91508 15.9131 5.50037 16.3379C8.74402 17.207 11.9876 18.0762 15.2313 18.9453C16.8166 19.3701 18.2251 17.8037 17.6971 16.2498C17.2105 14.8175 16.7744 13.3665 16.7494 12.7024C16.6815 10.8986 17.0565 10.1955 17.3051 9.26772C17.9649 6.80557 16.5383 4.28403 14.1187 3.63571ZM14.1187 3.63571L14.5069 2.18682M6.09143 6.3344C6.63275 4.31416 8.09535 2.77304 9.94602 2M18.5502 4.3055C19.7664 5.9003 20.2625 7.96625 19.7212 9.98649M14.2295 18.6769L14.1001 19.1598C13.5855 21.0803 12.0263 21.71 10.4259 21.2812C8.8255 20.8523 7.78999 19.5274 8.30458 17.6069L8.43399 17.124" stroke="#191644" stroke-width="1.25" stroke-linecap="round"/>
</svg>
