<svg width="20" height="14" viewBox="0 0 20 14" fill="none" xmlns="http://www.w3.org/2000/svg">
<path d="M5.5 4V6M5.5 8V10M5.5 12V13M5.5 2V1M8.5 10H15M8.5 7H12M3 1H17C18.1046 1 19 1.89543 19 3V4C19 4.55229 18.5255 4.97928 18.041 5.2445C17.4207 5.5841 17 6.2429 17 7C17 7.7571 17.4207 8.4159 18.041 8.7555C18.5255 9.0207 19 9.4477 19 10V11C19 12.1046 18.1046 13 17 13H3C1.89543 13 1 12.1046 1 11V10C1 9.4477 1.47452 9.0207 1.95897 8.7555C2.57933 8.4159 3 7.7571 3 7C3 6.2429 2.57933 5.5841 1.95897 5.2445C1.47452 4.97928 1 4.55229 1 4V3C1 1.89543 1.89543 1 3 1Z" stroke="#191644" stroke-width="1.25" stroke-linecap="round"/>
</svg>
