<svg width="78" height="126" viewBox="0 0 78 126" fill="none" xmlns="http://www.w3.org/2000/svg">
<g clip-path="url(#clip0_19_2134)">
<path d="M67.666 25.9164C67.452 24.8857 66.1037 24.5294 65.0597 24.723C64.6304 24.8016 64.1984 24.9385 63.7627 24.8973C62.9281 24.806 62.3061 24.0734 61.5041 23.8251C60.3511 23.4658 59.15 24.1717 58.2383 24.9552C57.3266 25.7386 56.4349 26.6739 55.249 26.8975C52.8209 27.3509 50.8503 24.6346 48.3834 24.481C47.0294 24.3972 45.7502 25.1117 44.7097 25.9731C43.6692 26.8345 42.7676 27.866 41.644 28.6182C40.6581 29.2796 39.5267 29.7024 38.3924 30.0821C37.7305 30.3041 37.027 30.5167 36.3424 30.3753C35.5674 30.2159 34.7738 29.6245 34.074 29.9778C33.8513 30.1062 33.6658 30.2894 33.5351 30.5097C32.5236 32.0228 32.8558 34.2715 34.2609 35.4396C34.5061 35.6424 34.8068 35.8706 34.7783 36.1914C34.7526 36.3395 34.6876 36.478 34.5901 36.5929C34.2344 37.0935 33.8438 37.5875 33.6555 38.17C33.4671 38.7525 33.5134 39.4599 33.9522 39.8901C34.2423 40.1455 34.6073 40.3015 34.9932 40.335C36.769 40.5734 38.4838 39.4013 40.2696 39.5416C40.4999 39.5475 40.7245 39.6143 40.9202 39.7352C41.2685 39.9806 41.357 40.4491 41.4553 40.8603C41.9926 43.0097 43.8332 44.7087 45.9535 45.3997C48.0738 46.0907 50.4208 45.8602 52.5117 45.0936C52.6634 45.0459 52.8066 44.9748 52.9361 44.883C53.1258 44.7097 53.2726 44.495 53.3648 44.2559C54.2216 42.4674 55.3009 40.6212 57.1033 39.77C58.2716 39.2228 59.7799 39.0335 60.4292 37.9261C60.8378 37.2252 60.7643 36.3542 60.9529 35.5641C61.1245 34.8881 61.4847 34.2742 61.9921 33.793C62.4996 33.3118 63.1337 32.9827 63.8217 32.8437C64.1226 32.788 64.4477 32.764 64.6885 32.5757C64.8891 32.3858 65.0338 32.1453 65.1071 31.8798C65.5325 30.7375 65.8794 29.5169 66.4044 28.417C66.8087 27.554 67.8957 27.0008 67.666 25.9164Z" fill="#020720"/>
<g opacity="0.1">
<path d="M33.8225 39.3201C34.114 39.5728 34.4791 39.7262 34.8644 39.758C36.6373 40.0049 38.3532 38.824 40.1389 38.9662C40.369 38.9713 40.5937 39.0376 40.7896 39.1579C41.1397 39.4037 41.2265 39.8719 41.3248 40.2831C41.8618 42.4342 43.7041 44.1335 45.8245 44.8245C47.9448 45.5155 50.2917 45.285 52.3809 44.5182C52.5325 44.4702 52.6757 44.3991 52.8053 44.3075C52.9947 44.134 53.1414 43.9194 53.234 43.6804C54.091 41.8902 55.1701 40.0457 56.9727 39.1928C58.1441 38.6372 59.6508 38.4583 60.2987 37.3488C60.7093 36.6465 60.6357 35.7755 60.8224 34.9869C60.9937 34.3105 61.3541 33.6963 61.8619 33.215C62.3698 32.7338 63.0045 32.4051 63.6929 32.2667C63.9938 32.211 64.3192 32.1853 64.5597 31.9987C64.7605 31.8085 64.9048 31.5671 64.9768 31.3008C65.4037 30.1606 65.7491 28.938 66.2738 27.8398C66.6264 27.1045 67.4865 26.5889 67.5624 25.7618C67.579 25.8083 67.5927 25.8559 67.6033 25.9041C67.8348 26.9888 66.7461 27.5417 66.3402 28.3903C65.8154 29.4885 65.47 30.7111 65.0432 31.8513C64.9712 32.1176 64.8269 32.359 64.626 32.5492C64.3855 32.7358 64.0602 32.7615 63.7593 32.8172C63.0706 32.9557 62.4357 33.2846 61.9277 33.7662C61.4198 34.2478 61.0595 34.8624 60.8885 35.5392C60.7018 36.3277 60.7754 37.1987 60.3648 37.9011C59.7162 39.0158 58.2089 39.1981 57.0388 39.7451C55.2395 40.6002 54.1606 42.4429 53.3001 44.2327C53.2075 44.4717 53.0609 44.6862 52.8714 44.8598C52.7418 44.9514 52.5986 45.0225 52.447 45.0704C50.3569 45.8442 48.0182 46.067 45.8906 45.3768C43.763 44.6865 41.9332 42.9872 41.3909 40.8353C41.2873 40.4234 41.2041 39.9557 40.8557 39.7102C40.6598 39.5898 40.4351 39.5236 40.205 39.5184C38.4191 39.378 36.7043 40.5501 34.9305 40.3103C34.5449 40.2769 34.1799 40.1216 33.8893 39.8672C33.7486 39.7176 33.6403 39.5408 33.5712 39.348C33.5021 39.1552 33.4737 38.9505 33.4876 38.7464C33.5478 38.963 33.6631 39.1605 33.8225 39.3201Z" fill="black"/>
<path d="M34.1318 34.8643C34.3759 35.0758 34.6796 35.2955 34.651 35.6163C34.6436 35.6805 34.6247 35.7428 34.595 35.8002C34.4792 35.6565 34.3458 35.5276 34.1979 35.4166C33.8035 35.0742 33.484 34.6549 33.2594 34.1849C33.0349 33.7149 32.91 33.2042 32.8927 32.6847C33.0391 33.5314 33.4771 34.3019 34.1318 34.8643Z" fill="black"/>
</g>
<path d="M51.1092 111.232C51.6573 113.239 50.5744 114.906 50.0388 116.031C49.5032 117.156 50.661 118.135 51.7613 118.578C52.8616 119.02 55.3249 122.511 55.3249 122.511C55.3249 122.511 58.5322 125.153 59.7718 125.083C61.0115 125.012 58.8174 122.155 58.8174 122.155L56.5304 116.267C56.5651 115.697 55.957 113.171 55.957 113.171L55.4308 104.189L55.361 102.995L49.2331 101.764C49.2331 101.764 49.4189 102.805 49.6787 104.213C50.1158 106.581 50.7652 109.979 51.1092 111.232Z" fill="#FFB6B6"/>
<path d="M6.0441 73.8173C6.2056 74.2622 8.65587 75.1127 8.65587 75.1127L10.2992 75.6733C10.2992 75.6733 12.8729 77.4088 14.8895 77.6896L25.5185 80.8714L26.9444 81.2989L27.7962 75.1813C27.7962 75.1813 27.0526 75.1558 26.0009 75.1088C23.6528 74.9877 19.777 74.7214 19.298 74.2714C18.6056 73.6212 18.3932 71.4621 17.0674 71.5224C15.7416 71.5827 13.9602 73.1306 13.9602 73.1306C13.9602 73.1306 12.0448 73.7282 10.3518 73.0488C8.65887 72.3694 5.8826 73.3725 6.0441 73.8173Z" fill="#FFB6B6"/>
<path opacity="0.1" d="M25.2004 80.3445C25.2004 80.3445 25.3322 80.5403 25.5187 80.8698L26.9447 81.2973L27.7962 75.1814C27.7962 75.1814 27.0525 75.1559 26.0009 75.1089C24.0676 76.2328 25.2004 80.3445 25.2004 80.3445Z" fill="black"/>
<path d="M46.3731 81.8514L39.8662 85.872C38.85 86.4992 37.6572 86.7854 36.4634 86.6884C34.6355 86.5421 31.7692 86.4074 29.6263 86.7515L29.2645 83.0844C29.2645 83.0844 26.7974 82.8296 26.3865 81.9294C26.1455 81.3982 25.8663 80.8849 25.5511 80.3934C25.5511 80.3934 24.3473 76.034 26.5396 75.0526C26.5396 75.0526 28.8694 74.6884 29.4155 74.1433C29.9615 73.5982 33.2267 72.9223 34.1821 73.121C35.1376 73.3197 37.9658 73.8697 37.9658 73.8697C37.9658 73.8697 39.2603 72.7633 39.7454 72.9639C40.2305 73.1646 42.0039 73.2784 42.0039 73.2784C42.0039 73.2784 42.6575 72.1147 43.3853 70.4183C44.1131 68.7219 47.0714 68.4913 47.0714 68.4913L46.3731 81.8514Z" fill="#D6EFFF"/>
<path opacity="0.1" d="M46.3731 81.8514L39.8662 85.872C38.85 86.4992 37.6572 86.7854 36.4634 86.6884C34.6355 86.5421 31.7692 86.4074 29.6263 86.7515L29.2645 83.0844C29.2645 83.0844 26.7974 82.8296 26.3865 81.9294C26.1455 81.3982 25.8663 80.8849 25.5511 80.3934C25.5511 80.3934 24.3473 76.034 26.5396 75.0526C26.5396 75.0526 28.8694 74.6884 29.4155 74.1433C29.9615 73.5982 33.2267 72.9223 34.1821 73.121C35.1376 73.3197 37.9658 73.8697 37.9658 73.8697C37.9658 73.8697 39.2603 72.7633 39.7454 72.9639C40.2305 73.1646 42.0039 73.2784 42.0039 73.2784C42.0039 73.2784 42.6575 72.1147 43.3853 70.4183C44.1131 68.7219 47.0714 68.4913 47.0714 68.4913L46.3731 81.8514Z" fill="black"/>
<path d="M55.0151 38.8866L55.6437 39.0966L55.684 39.1022L55.7763 39.1328L56.8526 39.4903L57.1371 39.9381L57.1492 39.954L58.0627 41.3909L58.8585 42.4156L58.8658 42.4273L59.5397 43.2878L60.6755 44.7716L60.8211 45.3438L61.1346 46.6102L61.2166 46.9322L62.3379 48.508L62.9294 50.4094L64.7358 51.8145L67.0003 51.0206L68.1587 49.7622L68.2172 47.7365L68.2289 47.3318L67.7281 46.2167L67.2741 45.2023L66.3585 43.4333L64.3727 41.6483L63.9942 41.4909L63.57 41.3147C63.543 41.2624 63.5189 41.2087 63.4977 41.1538C63.4691 41.0874 63.4445 41.0194 63.4242 40.9501C63.0783 39.8265 63.4703 38.2821 63.9972 36.9375C64.3974 35.9325 64.8776 34.9608 65.4331 34.0317L59.7616 32.3991C59.7616 32.3991 59.6626 33.5211 59.4207 35.2585C59.3601 35.6938 59.2944 36.1656 59.2118 36.6687C58.9656 38.2316 57.4051 38.7065 56.2584 38.8414C55.9629 38.8771 55.6656 38.895 55.3679 38.8949C55.1493 38.8982 55.0151 38.8866 55.0151 38.8866Z" fill="#FFB6B6"/>
<path d="M64.0191 40.9778C64.0191 40.9778 63.9015 39.8967 66.3754 37.5347C68.8493 35.1728 69.8559 30.8319 69.8559 30.8319C69.8559 30.8319 70.6971 28.642 70.2619 27.9159C69.8268 27.1898 69.9499 19.8864 69.9499 19.8864L69.0668 15.6373C69.0668 15.6373 63.0026 7.51682 66.061 7.05531C68.1389 6.74124 70.1028 10.1221 71.136 12.3175C71.647 13.3968 71.9104 14.5749 71.907 15.7666L74.3892 27.1595C74.3892 27.1595 74.6019 28.5201 73.8923 30.7284C73.1826 32.9367 71.7483 36.8187 71.7483 36.8187L68.7301 42.1271C68.7301 42.1271 67.0663 45.4626 67.6171 45.9741L66.5331 43.784L64.0191 40.9778Z" fill="#FFB6B6"/>
<path d="M27.6853 46.1287C27.6853 46.1287 28.1835 48.3277 29.8298 48.3794C31.476 48.4312 39.5884 47.298 39.5884 47.298C39.5884 47.298 43.0566 46.1393 44.3219 46.3598C45.5871 46.5804 51.7934 44.6938 51.7934 44.6938C51.7934 44.6938 52.1291 45.2871 52.5082 45.9149C52.9201 46.6022 53.3834 47.3322 53.5205 47.3744C53.7775 47.4546 57.7757 48.588 57.7757 48.588L60.7132 47.7104L61.1346 46.6102L61.3318 46.1052L60.8141 45.3428L60.1331 44.3411L58.8613 42.4213L58.854 42.4097L57.1419 39.9547L57.1298 39.9388L55.9119 39.2369L55.677 39.1012L55.6367 39.0956C55.486 39.048 54.9008 38.9115 54.0444 39.2466C53.4479 39.4806 52.8073 39.5839 52.1664 39.5495C50.8932 39.4632 49.6287 39.8047 48.5761 40.519L41.6161 43.0052L30.8927 45.239C30.8927 45.239 30.7128 40.1117 29.0708 40.9923C27.4288 41.8728 27.6853 46.1287 27.6853 46.1287Z" fill="#FFB6B6"/>
<path opacity="0.1" d="M52.5082 45.9149C52.9201 46.6023 53.3834 47.3323 53.5205 47.3744C53.7775 47.4546 57.7757 48.588 57.7757 48.588L60.7132 47.7104L61.1346 46.6102L61.2166 46.9322L62.3379 48.5081L62.9294 50.4095L64.7358 51.8145L67.0003 51.0206L68.1587 49.7622L68.2173 47.7366C68.1397 47.4844 67.9278 46.7983 67.7281 46.2168C67.6397 45.8994 67.5157 45.5928 67.3585 45.3028C67.1991 45.1635 67.1868 43.9035 67.1868 43.9035C66.708 41.5138 64.0896 40.7925 64.0896 40.7925L63.6082 41.1301L63.3957 41.2958C63.4728 41.2941 63.4059 41.1197 63.4987 41.1593C63.647 41.2243 63.6831 41.4653 63.8636 41.62C64.845 42.4665 66.304 44.3254 66.863 45.1895C66.9984 45.3982 67.1395 45.6042 67.2849 45.8054C68.1068 46.951 67.743 48.2668 67.743 48.2668C67.8378 49.3448 65.6034 49.8323 65.6034 49.8323C65.147 48.7714 61.5123 45.5146 61.5123 45.5146L59.23 42.1355C58.6016 40.5892 57.1059 39.4173 56.2591 38.8487C55.8847 38.5978 55.6353 38.4637 55.6353 38.4637L54.5656 38.7513C54.8422 38.7175 55.1227 38.7689 55.3691 38.8987C55.5118 38.9652 55.6486 39.0436 55.778 39.1331C55.827 39.1665 55.8757 39.2017 55.9207 39.2381C56.1747 39.4358 56.4085 39.658 56.6185 39.9014L58.545 42.6772C60.0177 44.7972 58.2884 47.6532 55.7169 47.3395L55.6941 47.3363C54.0765 47.4767 53.0528 46.5995 52.5082 45.9149Z" fill="black"/>
<path opacity="0.1" d="M49.2324 101.769C49.2324 101.769 49.4182 102.81 49.6779 104.218C51.3752 104.584 54.2988 104.32 55.43 104.194L55.3603 103L49.2324 101.769Z" fill="black"/>
<path d="M63.3939 41.2955L64.0346 40.8026C64.0346 40.8026 66.0216 41.3597 66.9798 43.683C66.9798 43.683 67.343 45.3752 67.5076 45.5152C67.6723 45.6553 68.3969 48.0508 68.3969 48.0508C68.3969 48.0508 69.1316 51.864 67.784 53.955C66.4364 56.0461 66.2476 57.0686 66.2476 57.0686L65.012 60.2684L64.2872 63.1241L60.5512 69.5696L57.4826 72.8389C57.4826 72.8389 57.3503 75.5482 57.8247 75.9923C58.2992 76.4363 57.7925 78.3162 57.7925 78.3162L57.4204 83.3896C57.4204 83.3896 58.2426 85.0338 57.9681 87.4802C57.6936 89.9265 57.9702 90.6749 57.9702 90.6749C57.9702 90.6749 57.8607 92.7449 57.2481 93.6143C56.6354 94.4838 57.7495 95.6363 57.7495 95.6363L56.1687 99.1199L55.9437 103.791C55.9437 103.791 50.7989 104.474 49.0365 103.651C47.274 102.829 46.255 103.087 46.255 103.087L44.8072 89.4136L45.1125 78.8755C45.1125 78.8755 46.07 71.5108 45.3967 69.1313C44.8182 67.0986 46.8763 60.4302 50.8627 59.672C51.6943 59.5145 52.2222 58.6758 52.9692 58.2793C53.6368 57.9268 54.7713 57.0324 54.5454 55.0985C54.2286 52.3924 53.0915 48.0423 53.0915 48.0423L52.174 45.3626C52.174 45.3626 53.2426 47.7652 55.8413 47.5503L55.8641 47.5534C58.4358 47.8654 60.1652 45.0093 58.6922 42.8912L56.7659 40.1136C56.7659 40.1136 55.6749 38.7957 54.714 38.9565L55.7819 38.6686C55.7819 38.6686 58.4755 40.1085 59.3819 42.3412L61.6642 45.7203C61.6642 45.7203 65.2971 48.9644 65.7526 50.0323C65.7526 50.0323 67.9869 49.5448 67.8921 48.4668C67.8921 48.4668 68.2544 47.149 67.4343 46.0037C67.2832 45.8052 67.1475 45.5982 67.0121 45.3894C66.2873 44.2663 64.2676 41.2734 63.3939 41.2955Z" fill="#D6EFFF"/>
<path opacity="0.1" d="M60.5676 59.181C60.5676 59.181 60.5647 63.8622 59.9523 64.73L60.5676 59.181Z" fill="black"/>
<path opacity="0.1" d="M59.9036 60.9077L58.8564 63.447C58.8564 63.447 58.8404 61.8032 59.9036 60.9077Z" fill="black"/>
<path opacity="0.1" d="M64.0223 60.8547C64.0223 60.8547 61.7301 67.3681 59.9576 69.1852L64.0223 60.8547Z" fill="black"/>
<path opacity="0.1" d="M53.3177 67.6005C53.3177 67.6005 55.3382 70.1002 56.2598 70.067C56.2598 70.067 52.6647 69.7226 51.8083 67.6956C51.8076 67.7008 52.6028 67.2792 53.3177 67.6005Z" fill="black"/>
<path opacity="0.1" d="M50.1207 66.9779C50.1207 66.9779 52.8019 69.5465 53.3654 69.8255C53.3654 69.8255 50.2714 68.463 50.1207 66.9779Z" fill="black"/>
<path opacity="0.1" d="M62.4307 52.3862C62.4307 52.3862 63.6575 54.4879 64.433 54.374C64.433 54.374 62.6039 54.185 62.4307 52.3862Z" fill="black"/>
<path opacity="0.1" d="M60.4027 54.5883C60.4027 54.5883 57.7675 49.7634 56.2089 49.7239C56.2089 49.7239 59.449 53.4138 60.4027 54.5883Z" fill="black"/>
<path opacity="0.1" d="M56.1317 52.3716C56.1317 52.3716 58.0493 53.6839 57.7884 53.9528C57.5275 54.2217 56.1317 52.3716 56.1317 52.3716Z" fill="black"/>
<path opacity="0.1" d="M49.9656 85.7448C49.9656 85.7448 56.2936 90.6864 56.9013 90.9697C56.9013 90.9697 55.5933 91.698 54.5369 91.1072C53.4805 90.5165 49.9656 85.7448 49.9656 85.7448Z" fill="black"/>
<path opacity="0.1" d="M54.5749 94.8393C54.5749 94.8393 57.3763 94.94 57.1432 95.818C56.9101 96.6959 54.5749 94.8393 54.5749 94.8393Z" fill="black"/>
<path opacity="0.1" d="M59.7616 32.399C59.7616 32.399 59.6626 33.521 59.4207 35.2585C59.9964 35.8771 60.7114 36.3517 61.507 36.6433C62.3026 36.9348 63.1561 37.035 63.9974 36.9356C64.3976 35.9306 64.8778 34.959 65.4334 34.0299L59.7616 32.399Z" fill="black"/>
<path d="M62.6649 36.5816C59.7353 36.1737 57.6887 33.4853 58.0937 30.5768C58.4987 27.6683 61.2018 25.6411 64.1314 26.049C67.061 26.4569 69.1076 29.1454 68.7026 32.0539C68.2977 34.9624 65.5945 36.9895 62.6649 36.5816Z" fill="#FFB6B6"/>
<path opacity="0.1" d="M61.5602 34.3354C61.1113 36.4682 60.3124 38.8681 58.2783 39.6888C56.8087 40.281 55.1223 39.8368 53.6781 39.1814C52.2339 38.526 50.8517 37.6556 49.2945 37.3625C48.0978 37.1373 46.8662 37.2657 45.6546 37.1733C44.443 37.081 43.1538 36.7116 42.4131 35.7531C41.3519 34.3879 41.8786 32.2482 43.216 31.1549C44.5534 30.0615 46.4353 29.8586 48.1507 30.1454C50.247 30.4958 52.5078 31.4619 54.3483 30.4262C55.5841 29.7287 56.2128 28.3077 57.2979 27.3958C59.1097 25.8733 66.4002 24.3258 67.4746 27.3681C67.9788 28.7924 64.7148 29.3051 63.8551 30.1651C62.4971 31.5217 61.9738 32.3664 61.5602 34.3354Z" fill="black"/>
<path d="M61.423 34.1265C60.9721 36.2608 60.175 38.6609 58.1411 39.4798C56.6716 40.072 54.9852 39.6278 53.5407 38.9742C52.0962 38.3205 50.7143 37.4484 49.1553 37.155C47.9604 36.9301 46.729 37.0568 45.5154 36.9659C44.3018 36.875 43.0164 36.5044 42.2757 35.5458C41.2148 34.1789 41.7412 32.041 43.0786 30.9477C44.416 29.8543 46.2979 29.6514 48.0116 29.9379C50.1081 30.2866 52.3704 31.2547 54.2112 30.2172C55.447 29.5197 56.0754 28.1005 57.1607 27.1868C58.9725 25.6644 66.2628 24.1186 67.3372 27.1609C67.8416 28.5834 64.5777 29.0962 63.7159 29.9576C62.36 31.3128 61.8369 32.1557 61.423 34.1265Z" fill="#020720"/>
<path opacity="0.1" d="M65.737 49.8491C65.7512 49.1507 65.6153 48.457 65.3383 47.8143C65.0613 47.1716 64.6495 46.5947 64.1305 46.1222" fill="black"/>
<path opacity="0.1" d="M42.0514 74.3497C42.0439 74.5226 42.0626 74.6957 42.1068 74.8632C42.2414 75.5787 42.4251 76.2844 42.6565 76.9753C42.1938 76.8701 41.859 76.4507 41.7195 76.0019C41.6067 75.5443 41.5752 75.0709 41.6265 74.6029C41.6295 74.4549 41.6458 74.3075 41.6753 74.1625C41.7065 74.0284 41.8664 73.5218 42.0797 73.6456C42.2514 73.7476 42.067 74.2117 42.0514 74.3497Z" fill="black"/>
<path opacity="0.1" d="M42.0359 34.957C42.7783 35.9157 44.0638 36.2864 45.2774 36.3773C46.491 36.4681 47.7276 36.3422 48.9171 36.5681C50.4848 36.8627 51.8547 37.7314 53.3007 38.387C54.7467 39.0427 56.4313 39.4866 57.9026 38.8947C59.935 38.0738 60.7339 35.6739 61.1828 33.5411C61.5963 31.572 62.1215 30.7276 63.4777 29.3707C64.2981 28.5497 67.2999 28.0448 67.1419 26.7663C67.2217 26.8907 67.2871 27.0237 67.3369 27.1626C67.8414 28.5852 64.5774 29.0979 63.7157 29.9593C62.3597 31.3145 61.8361 32.1609 61.4228 34.1282C60.9719 36.2625 60.1747 38.6627 58.1409 39.4815C56.6713 40.0738 54.9849 39.6295 53.5405 38.9759C52.096 38.3222 50.7141 37.4501 49.1551 37.1567C47.9602 36.9318 46.7288 37.0585 45.5152 36.9676C44.3016 36.8767 43.0161 36.5061 42.2755 35.5476C42.0653 35.2737 41.9114 34.9617 41.8224 34.6291C41.885 34.7437 41.9564 34.8533 42.0359 34.957Z" fill="black"/>
<path d="M65.4967 54.3606L65.9463 55.8429L63.9564 55.1524L65.4967 54.3606Z" fill="#FFB6B6"/>
<path opacity="0.1" d="M65.4967 54.3606L65.8323 55.8271L65.9463 55.8429L65.4967 54.3606Z" fill="black"/>
</g>
<defs>
<clipPath id="clip0_19_2134">
<rect width="61.6119" height="117.943" fill="white" transform="matrix(-0.990446 -0.137903 -0.137903 0.990446 77.2881 8.49609)"/>
</clipPath>
</defs>
</svg>
