<svg width="129" height="22" viewBox="0 0 129 22" fill="none" xmlns="http://www.w3.org/2000/svg">
<path fill-rule="evenodd" clip-rule="evenodd" d="M35.0328 20.3359C35.7517 20.7527 36.5607 20.9608 37.4601 20.9608C38.3545 20.9608 39.1579 20.7535 39.871 20.3391C40.5841 19.9247 41.1501 19.3589 41.5688 18.6426C41.9876 17.9254 42.2006 17.1176 42.2096 16.2207V8.30695C42.2096 8.06655 42.1364 7.87391 41.9892 7.72983C41.8412 7.58495 41.6493 7.51291 41.4119 7.51291C41.1818 7.51291 40.9915 7.58495 40.8403 7.72983C40.6898 7.87391 40.6142 8.06655 40.6142 8.30695V13.0883C40.2288 12.5872 39.7401 12.1874 39.1497 11.8903C38.5586 11.5932 37.9073 11.4443 37.195 11.4443C36.3404 11.4443 35.5736 11.6531 34.8954 12.0692C34.2173 12.486 33.6814 13.0526 33.2879 13.7682C32.8951 14.4837 32.6983 15.2923 32.6983 16.194C32.6983 17.1006 32.9081 17.9133 33.3269 18.632C33.7448 19.3516 34.314 19.9198 35.0328 20.3359ZM39.1075 19.112C38.6245 19.405 38.0756 19.5515 37.4601 19.5515C36.8551 19.5515 36.3087 19.405 35.82 19.112C35.3313 18.8198 34.945 18.4192 34.6596 17.91C34.375 17.4017 34.2319 16.8302 34.2319 16.194C34.2319 15.5562 34.375 14.9847 34.6596 14.4813C34.945 13.9778 35.3313 13.5804 35.82 13.2898C36.3087 12.9992 36.8551 12.8535 37.4601 12.8535C38.0756 12.8535 38.6245 12.9992 39.1075 13.2898C39.5905 13.5804 39.9718 13.9778 40.2507 14.4813C40.5304 14.9847 40.6695 15.5562 40.6695 16.194C40.6695 16.8302 40.5304 17.4017 40.2507 17.91C39.9718 18.4192 39.5905 18.8198 39.1075 19.112ZM49.8441 20.3553C50.2994 20.0777 50.6889 19.7312 51.0134 19.316V20.1084C51.0134 20.3383 51.0882 20.5269 51.2394 20.6742C51.3907 20.8223 51.5818 20.896 51.8127 20.896C52.0444 20.896 52.2347 20.8223 52.3843 20.6742C52.5339 20.5269 52.6087 20.3383 52.6087 20.1084V16.211C52.6047 15.3053 52.3933 14.4926 51.9745 13.773C51.5557 13.0543 50.9906 12.486 50.2783 12.0692C49.5652 11.6531 48.7594 11.4443 47.8584 11.4443C46.9583 11.4443 46.1492 11.6531 45.4304 12.0692C44.7124 12.486 44.144 13.0534 43.7253 13.7706C43.3073 14.4886 43.0975 15.3028 43.0975 16.2143C43.0975 17.1144 43.2951 17.9222 43.6887 18.6393C44.083 19.3565 44.6189 19.9223 45.2962 20.3383C45.9728 20.7535 46.7387 20.9608 47.5941 20.9608C48.4333 20.9608 49.183 20.7592 49.8441 20.3553ZM49.5066 19.1161C49.0236 19.4067 48.4748 19.5515 47.8584 19.5515C47.2534 19.5515 46.707 19.4067 46.2183 19.1161C45.7304 18.8247 45.3434 18.4264 45.0588 17.9189C44.7742 17.4122 44.6311 16.8424 44.6311 16.2094C44.6311 15.5659 44.7742 14.992 45.0588 14.4886C45.3434 13.9843 45.7304 13.5861 46.2191 13.293C46.7078 13 47.2543 12.8535 47.8592 12.8535C48.4748 12.8535 49.0244 13 49.5066 13.293C49.9896 13.5861 50.371 13.9851 50.6499 14.4902C50.9288 14.9945 51.0687 15.5675 51.0687 16.2094C51.0687 16.8408 50.9288 17.4098 50.6499 17.9181C50.371 18.4256 49.9896 18.8247 49.5066 19.1161ZM55.079 20.1084V15.1879C55.079 14.7435 55.201 14.3485 55.4433 14.0037C55.6856 13.6589 56.0142 13.3845 56.428 13.1821C56.8427 12.979 57.3054 12.8778 57.8185 12.8778C58.3682 12.8778 58.8569 12.983 59.2862 13.1935C59.7155 13.4047 60.0562 13.7245 60.3083 14.1526C60.5596 14.5808 60.6856 15.1321 60.6856 15.8047V20.1084C60.6856 20.3334 60.7612 20.5212 60.9117 20.671C61.0629 20.8215 61.2532 20.896 61.4833 20.896C61.7093 20.896 61.898 20.8215 62.0484 20.671C62.1997 20.5212 62.2745 20.3334 62.2745 20.1084V15.8047C62.2745 14.8609 62.0923 14.0644 61.7264 13.4136C61.3605 12.7629 60.8621 12.2691 60.2303 11.9324C59.5993 11.5957 58.8829 11.4273 58.0828 11.4273C57.3306 11.4273 56.6508 11.5916 56.0426 11.9202C55.6759 12.1194 55.3547 12.3606 55.079 12.6455V12.3136C55.079 12.0732 55.0067 11.8806 54.8619 11.7365C54.7164 11.5916 54.5253 11.5196 54.2879 11.5196C54.0537 11.5196 53.8618 11.5916 53.713 11.7365C53.5642 11.8806 53.4902 12.0732 53.4902 12.3136V20.1084C53.4902 20.3383 53.5642 20.5269 53.713 20.6742C53.8618 20.8223 54.0537 20.896 54.2879 20.896C54.5253 20.896 54.7164 20.8223 54.8619 20.6742C55.0067 20.5269 55.079 20.3383 55.079 20.1084ZM65.2701 20.3359C65.9824 20.7527 66.7947 20.9608 67.7078 20.9608C68.9511 20.9608 69.9871 20.5787 70.8173 19.8138C70.9644 19.6713 71.0279 19.5078 71.0075 19.3241C70.9864 19.1395 70.8896 18.9736 70.7172 18.8271C70.5766 18.7105 70.418 18.6596 70.2407 18.6741C70.0635 18.6895 69.8919 18.7648 69.726 18.9C69.4601 19.1225 69.1625 19.2869 68.8316 19.3929C68.5015 19.4989 68.1266 19.5515 67.7078 19.5515C67.0785 19.5515 66.5223 19.4067 66.0417 19.1161C65.5612 18.8247 65.1863 18.4289 64.9172 17.9278C64.648 17.426 64.5138 16.8545 64.5138 16.211C64.5138 15.5433 64.6431 14.958 64.9017 14.457C65.1611 13.9552 65.5221 13.5626 65.9848 13.2793C66.4475 12.996 66.9817 12.8535 67.5891 12.8535C68.4925 12.8535 69.2447 13.1813 69.8464 13.8362C69.9895 13.9875 70.1505 14.0806 70.3302 14.1162C70.5091 14.1518 70.6725 14.117 70.8205 14.0118C71.0092 13.8766 71.1238 13.7196 71.1653 13.5407C71.2068 13.3618 71.1539 13.1902 71.0067 13.0251C70.5595 12.4982 70.0497 12.1032 69.4764 11.8393C68.9031 11.5762 68.2746 11.4443 67.5891 11.4443C66.6914 11.4443 65.8978 11.6491 65.2074 12.0587C64.5163 12.469 63.9723 13.0332 63.5755 13.752C63.1787 14.4716 62.9803 15.2915 62.9803 16.211C62.9803 17.1135 63.1836 17.9222 63.5909 18.6377C63.9975 19.3532 64.5578 19.9198 65.2701 20.3359ZM73.4274 17.9553C73.216 17.5895 73.081 17.1864 73.0217 16.7444H79.7211C79.9333 16.7444 80.1065 16.6797 80.2423 16.551C80.3789 16.4215 80.4464 16.2547 80.4464 16.0508C80.4464 15.1531 80.274 14.3582 79.9292 13.6654C79.5845 12.9725 79.0893 12.4294 78.4453 12.0352C77.8005 11.641 77.0353 11.4443 76.1498 11.4443C75.2529 11.4443 74.4593 11.6483 73.7681 12.0554C73.0778 12.4634 72.5362 13.0235 72.1451 13.7374C71.754 14.4505 71.558 15.2753 71.558 16.211C71.558 17.1362 71.7654 17.9562 72.1793 18.6717C72.594 19.3872 73.1664 19.9482 73.8974 20.3529C74.6284 20.7584 75.4651 20.9608 76.4076 20.9608C76.9402 20.9608 77.4963 20.8612 78.0777 20.6605C78.6591 20.4597 79.1429 20.2031 79.5284 19.8899C79.7008 19.7547 79.7829 19.5936 79.7739 19.4058C79.7642 19.2172 79.6707 19.0448 79.4934 18.8862C79.3576 18.7745 79.1974 18.7211 79.012 18.7267C78.8266 18.7324 78.6567 18.7931 78.503 18.9105C78.2648 19.0991 77.9501 19.261 77.5598 19.3969C77.1695 19.5329 76.7857 19.6001 76.4076 19.6001C75.7408 19.6001 75.1513 19.4536 74.6374 19.159C74.1243 18.8651 73.721 18.4637 73.4274 17.9553ZM78.9941 15.4801H73.0444C73.1046 15.1134 73.2111 14.7735 73.3648 14.4586C73.6169 13.9446 73.9804 13.5407 74.456 13.2461C74.9317 12.9523 75.496 12.805 76.1498 12.805C76.7499 12.805 77.2622 12.9434 77.6882 13.2186C78.1135 13.4946 78.442 13.8718 78.673 14.3518C78.8388 14.695 78.9462 15.0714 78.9941 15.4801ZM82.524 20.1084V15.0624C82.524 14.5331 82.6841 14.0887 83.0045 13.7285C83.3257 13.3683 83.7615 13.1133 84.3137 12.9636C84.865 12.8139 85.4903 12.796 86.1888 12.9094C86.3554 12.9345 86.5075 12.9426 86.6449 12.9328C86.7823 12.9231 86.9019 12.881 87.0035 12.8066C87.1052 12.7321 87.1759 12.6123 87.2141 12.448C87.2905 12.1485 87.1694 11.9016 86.8507 11.7082C86.5319 11.5139 86.0595 11.4168 85.4334 11.4168C84.7544 11.4168 84.1331 11.5771 83.5713 11.896C83.1631 12.1283 82.8134 12.4205 82.524 12.7734V12.2966C82.524 12.0425 82.4573 11.849 82.3256 11.7171C82.193 11.5851 81.9987 11.5196 81.7433 11.5196C81.4945 11.5196 81.3018 11.5876 81.166 11.7227C81.0302 11.8579 80.9627 12.0489 80.9627 12.2966V20.1084C80.9627 20.3634 81.0302 20.5569 81.166 20.688C81.3018 20.8199 81.4945 20.8863 81.7433 20.8863C81.9987 20.8863 82.193 20.8183 82.3256 20.6831C82.4573 20.5479 82.524 20.3561 82.524 20.1084ZM72.2329 9.62875C72.2329 10.0756 72.5972 10.4382 73.0461 10.4382H79.16C79.6089 10.4382 79.9732 10.0756 79.9732 9.62875C79.9732 9.18195 79.6089 8.81933 79.16 8.81933H73.0461C72.5972 8.81933 72.2329 9.18195 72.2329 9.62875ZM96.9994 11.9356L93.9225 18.6288L93.1866 20.3561C93.359 20.7025 93.6078 20.8758 93.9322 20.8758C94.2656 20.8758 94.512 20.7025 94.6706 20.3561L98.3638 12.5378C98.4468 12.3654 98.4557 12.1906 98.3915 12.0117C98.3272 11.8328 98.2004 11.7001 98.0117 11.6135C97.8158 11.5236 97.6206 11.5099 97.4263 11.5714C97.2319 11.6337 97.0896 11.7551 96.9994 11.9356ZM98.9062 20.6637C99.0558 20.8118 99.2501 20.8863 99.4908 20.8863C99.7201 20.8863 99.9096 20.8118 100.059 20.6637C100.208 20.5148 100.283 20.327 100.283 20.0979V12.3072C100.283 12.0676 100.208 11.8765 100.059 11.7333C99.9096 11.5908 99.7201 11.5196 99.4908 11.5196C99.2501 11.5196 99.0558 11.5908 98.9062 11.7333C98.7574 11.8765 98.6826 12.0676 98.6826 12.3072V20.0979C98.6826 20.327 98.7574 20.5148 98.9062 20.6637ZM98.7346 9.58504C98.9403 9.78983 99.1875 9.89263 99.4737 9.89263C99.7722 9.89263 100.024 9.78983 100.231 9.58504C100.437 9.37945 100.541 9.12772 100.541 8.83147C100.541 8.53441 100.434 8.28591 100.222 8.08598C100.01 7.88687 99.7665 7.78649 99.4908 7.78649C99.2046 7.78649 98.955 7.88687 98.7427 8.08598C98.5305 8.28591 98.4248 8.53441 98.4248 8.83147C98.4248 9.12772 98.5281 9.37945 98.7346 9.58504ZM104.197 20.3391C104.91 20.7535 105.714 20.9608 106.608 20.9608C107.519 20.9608 108.332 20.7527 109.048 20.3359C109.762 19.9198 110.33 19.3516 110.748 18.632C111.167 17.9133 111.376 17.1006 111.376 16.194C111.376 15.2923 111.18 14.4837 110.787 13.7682C110.394 13.0526 109.858 12.486 109.179 12.0692C108.501 11.6531 107.734 11.4443 106.88 11.4443C106.168 11.4443 105.517 11.5932 104.927 11.8903C104.338 12.1874 103.847 12.5872 103.454 13.0883V8.30695C103.454 8.06655 103.382 7.87391 103.237 7.72983C103.091 7.58495 102.9 7.51291 102.663 7.51291C102.428 7.51291 102.237 7.58495 102.088 7.72983C101.939 7.87391 101.865 8.06655 101.865 8.30695V16.2207C101.877 17.1176 102.09 17.9254 102.505 18.6426C102.92 19.3589 103.484 19.9247 104.197 20.3391ZM108.26 19.112C107.775 19.405 107.225 19.5515 106.608 19.5515C106.004 19.5515 105.458 19.405 104.969 19.112C104.48 18.8198 104.097 18.4192 103.821 17.91C103.543 17.4017 103.405 16.8302 103.405 16.194C103.405 15.5562 103.543 14.9847 103.821 14.4813C104.097 13.9778 104.48 13.5804 104.969 13.2898C105.458 12.9992 106.004 12.8535 106.608 12.8535C107.225 12.8535 107.775 12.9992 108.26 13.2898C108.745 13.5804 109.129 13.9778 109.412 14.4813C109.695 14.9847 109.836 15.5562 109.836 16.194C109.836 16.8302 109.695 17.4017 109.412 17.91C109.129 18.4192 108.745 18.8198 108.26 19.112ZM113.645 17.9553C113.434 17.5895 113.299 17.1864 113.239 16.7444H119.939C120.15 16.7444 120.324 16.6797 120.46 16.551C120.596 16.4215 120.664 16.2547 120.664 16.0508C120.664 15.1531 120.492 14.3582 120.146 13.6654C119.801 12.9725 119.307 12.4294 118.662 12.0352C118.018 11.641 117.253 11.4443 116.367 11.4443C115.47 11.4443 114.676 11.6483 113.986 12.0554C113.295 12.4634 112.754 13.0235 112.363 13.7374C111.972 14.4505 111.776 15.2753 111.776 16.211C111.776 17.1362 111.983 17.9562 112.397 18.6717C112.811 19.3872 113.383 19.9482 114.114 20.3529C114.845 20.7584 115.682 20.9608 116.625 20.9608C117.157 20.9608 117.714 20.8612 118.295 20.6605C118.877 20.4597 119.36 20.2031 119.745 19.8899C119.918 19.7547 120 19.5936 119.991 19.4058C119.982 19.2172 119.888 19.0448 119.711 18.8862C119.575 18.7745 119.414 18.7211 119.23 18.7267C119.044 18.7324 118.874 18.7931 118.72 18.9105C118.482 19.0991 118.168 19.261 117.777 19.3969C117.387 19.5329 117.002 19.6001 116.625 19.6001C115.958 19.6001 115.368 19.4536 114.855 19.159C114.341 18.8651 113.938 18.4637 113.645 17.9553ZM119.212 15.4801H113.262C113.321 15.1134 113.429 14.7735 113.582 14.4586C113.835 13.9446 114.198 13.5407 114.674 13.2461C115.149 12.9523 115.714 12.805 116.367 12.805C116.967 12.805 117.48 12.9434 117.905 13.2186C118.331 13.4946 118.66 13.8718 118.891 14.3518C119.056 14.695 119.163 15.0714 119.212 15.4801ZM122.405 20.603C123.081 20.8418 123.795 20.9608 124.55 20.9608C125.329 20.9608 125.992 20.8402 126.542 20.5973C127.091 20.3553 127.513 20.0259 127.807 19.6106C128.101 19.1946 128.248 18.7219 128.248 18.1925C128.248 17.7489 128.14 17.3507 127.924 16.9986C127.709 16.6457 127.352 16.3373 126.853 16.0726C126.354 15.8079 125.675 15.5959 124.814 15.438C124.191 15.3215 123.713 15.1936 123.381 15.056C123.049 14.9184 122.821 14.7613 122.699 14.5849C122.577 14.4084 122.516 14.2061 122.516 13.9786C122.516 13.6257 122.696 13.3473 123.057 13.1433C123.418 12.9385 123.875 12.8365 124.428 12.8365C124.886 12.8365 125.29 12.898 125.64 13.0203C125.99 13.1433 126.309 13.3521 126.596 13.6484C126.75 13.7989 126.939 13.8944 127.163 13.9333C127.386 13.9721 127.581 13.9382 127.746 13.8297C127.921 13.7058 128.016 13.5521 128.033 13.3675C128.048 13.183 127.985 13.0065 127.842 12.8365C127.498 12.4059 127.039 12.0659 126.465 11.8175C125.892 11.569 125.224 11.4443 124.462 11.4443C123.865 11.4443 123.3 11.5398 122.77 11.73C122.24 11.9211 121.81 12.2084 121.479 12.5929C121.148 12.9782 120.983 13.4614 120.983 14.0434C120.983 14.6925 121.246 15.2454 121.775 15.7019C122.303 16.1584 123.147 16.4919 124.305 16.7023C125.2 16.8578 125.826 17.065 126.184 17.3224C126.542 17.5806 126.718 17.893 126.71 18.2621C126.699 18.6312 126.513 18.938 126.152 19.1833C125.792 19.4293 125.244 19.5515 124.508 19.5515C123.971 19.5515 123.483 19.4609 123.045 19.2788C122.606 19.0974 122.273 18.8781 122.048 18.6215C121.905 18.4677 121.732 18.3779 121.528 18.352C121.324 18.3253 121.121 18.39 120.918 18.547C120.74 18.6863 120.639 18.8611 120.612 19.0707C120.585 19.2812 120.649 19.4682 120.804 19.6333C121.196 20.0404 121.729 20.3642 122.405 20.603ZM0.751919 17.0099C0.751919 19.4034 2.60912 21.3679 4.96558 21.5524V21.567H25.8696V21.5613C28.2635 21.4448 30.1703 19.473 30.1703 17.0617C30.1703 14.5752 28.1423 12.5565 25.6444 12.5565C25.2939 12.5565 24.9532 12.5961 24.6255 12.6714C25.8233 11.3998 26.5567 9.69108 26.5567 7.81239C26.5567 3.89071 23.3579 0.706421 19.4182 0.706421C15.5282 0.706421 12.3602 3.81058 12.2814 7.66427C11.5845 6.95683 10.6144 6.51812 9.5419 6.51812C7.42369 6.51812 5.70472 8.22925 5.70472 10.337C5.70472 11.1796 5.97875 11.9583 6.44305 12.5896C6.08689 12.5006 5.71366 12.4537 5.32986 12.4537C2.80346 12.4537 0.751919 14.495 0.751919 17.0099ZM19.0442 4.90412C18.688 4.76571 18.188 5.11053 18.092 5.81473L17.9302 5.73379C18.2872 4.89279 18.7417 4.59653 19.1678 4.75275C19.7288 4.95997 19.9248 5.512 19.6345 6.34086L19.171 6.15307C19.5166 5.5719 19.3556 5.02554 19.0442 4.90412ZM14.0312 9.89182C13.9133 9.44339 14.0556 9.01764 14.3483 8.94155C14.6411 8.86546 14.9745 9.16738 15.0915 9.6158C15.2094 10.0642 15.0671 10.49 14.7744 10.5661C14.4817 10.6422 14.1483 10.3402 14.0312 9.89182ZM18.1912 5.546C18.3351 5.10972 18.6921 4.82884 18.9865 4.9195C19.2808 5.01096 19.4028 5.43915 19.258 5.87543C19.1133 6.31172 18.7572 6.59178 18.4628 6.50112C18.1684 6.40966 18.0465 5.98228 18.1912 5.546ZM20.3899 8.23573C22.239 7.85691 24.4605 5.45453 24.5979 5.19875C24.184 6.61606 22.757 7.96052 21.073 9.00873C21.0228 9.83088 20.5012 10.3424 20.3148 10.5253C20.2714 10.5678 20.2462 10.5925 20.2493 10.5993C20.8258 11.8595 20.6461 13.8588 20.2037 14.3056C20.2037 14.3056 20.3021 12.4723 19.2491 11.1108C19.184 11.0274 17.8993 11.8061 17.8993 11.8061L18.1855 8.4648C18.1855 8.4648 17.1471 7.80511 16.9105 6.56588C16.6373 5.13724 15.5404 4.36018 15.5404 4.36018C15.5404 4.36018 16.2112 4.47431 17.0366 5.34849C17.3582 5.68914 17.5458 5.97487 17.6946 6.20155C17.9274 6.55605 18.0654 6.76613 18.4726 6.81599C19.7532 6.97302 21.5438 4.3788 21.5438 4.3788C21.5438 4.3788 20.6152 6.60392 20.0883 7.28384C19.5752 7.94595 19.1946 8.24221 19.1946 8.24221C19.1946 8.24221 20.0557 8.30372 20.3899 8.23573ZM12.0878 12.9604C10.4981 11.811 9.17437 10.3775 8.84586 8.92374C8.98897 9.2378 11.8097 12.7264 13.7271 12.2489C14.0483 12.1687 13.7482 11.4856 13.1555 10.8615C12.5619 10.2374 11.8764 8.2592 11.8764 8.2592C11.8764 8.2592 13.4872 10.974 14.7484 10.8842C15.1493 10.8555 15.2956 10.6506 15.5425 10.3046C15.7003 10.0836 15.8991 9.80508 16.2316 9.4782C17.0853 8.63963 17.7481 8.56031 17.7481 8.56031C17.7481 8.56031 16.6332 9.28718 16.2893 10.715C15.8308 12.618 15.4035 13.0477 14.7511 13.7038C14.5357 13.9203 14.2959 14.1616 14.0223 14.4886C12.9717 15.7448 12.679 18.118 12.6538 18.339C12.6839 18.3366 12.7148 18.335 12.7457 18.335C13.3604 18.3366 13.858 18.8344 13.8564 19.4463L13.854 20.6176L14.3817 20.6184L14.3882 17.9958C14.389 17.6979 14.5085 17.413 14.7199 17.2034C14.9322 16.9937 15.2184 16.8756 15.5176 16.8764C15.7786 16.8772 16.0291 16.9808 16.2137 17.1653C16.3974 17.3499 16.5007 17.5992 16.4999 17.859L16.4934 20.6232L17.0219 20.6248L17.0309 16.5947C17.0317 16.3252 17.1398 16.067 17.3325 15.8759C17.5244 15.6857 17.7846 15.5797 18.0554 15.5797C18.3441 15.5805 18.6222 15.6954 18.8255 15.8994C19.0296 16.1034 19.1434 16.3794 19.1426 16.6667L19.1336 20.6297L19.6614 20.6305L19.6736 15.3587C19.6752 14.7638 20.1614 14.2822 20.7591 14.2838C21.0315 14.2846 21.2933 14.3931 21.486 14.5857C21.6787 14.7783 21.7869 15.039 21.7861 15.3109L21.7731 20.6354C21.8706 20.6362 21.9495 20.709 21.9487 20.7989C21.9487 20.8887 21.8698 20.9616 21.7731 20.9616L11.565 20.9373C11.4682 20.9373 11.3893 20.8644 11.3893 20.7746C11.3902 20.6839 11.469 20.6119 11.5658 20.6119L11.7422 20.6127L11.7455 19.3265C11.7455 19.0626 11.8512 18.8109 12.039 18.6247C12.2017 18.4637 12.4139 18.3641 12.6391 18.3406C12.2423 17.8396 12.1773 15.8937 12.8018 14.6642C13.2173 13.8467 12.0878 12.9604 12.0878 12.9604Z" fill="#144E03"/>
<path d="M89.473 12.5443L93.1866 20.3561L93.9225 18.6288L90.8098 11.9356C90.7155 11.7592 90.5781 11.6386 90.3967 11.5746C90.2162 11.5107 90.0349 11.5252 89.8527 11.6199C89.6527 11.7138 89.5185 11.8474 89.451 12.0198C89.3827 12.193 89.3901 12.3679 89.473 12.5443Z" fill="url(#paint0_linear_8_2093)"/>
<defs>
<linearGradient id="paint0_linear_8_2093" x1="90" y1="11.9994" x2="94" y2="19.9994" gradientUnits="userSpaceOnUse">
<stop stop-color="#144E03"/>
<stop offset="1" stop-color="#3BBC1B"/>
</linearGradient>
</defs>
</svg>
